<?xml version="1.0" encoding="iso-8859-1"?>
<!-- Generator: Adobe Illustrator 19.0.0, SVG Export Plug-In . SVG Version: 6.00 Build 0)  -->
<svg version="1.1" id="Layer_1" xmlns="http://www.w3.org/2000/svg" xmlns:xlink="http://www.w3.org/1999/xlink" x="0px" y="0px"
	 viewBox="0 0 512.001 512.001" style="enable-background:new 0 0 512.001 512.001;" xml:space="preserve" width="22px" height="22px">
<path style="fill:#FEFFCC;" d="M402.82,72.763c-5.375,0-10.389,1.543-14.625,4.21h-1.476c0.648-2.681,1.017-5.471,1.017-8.351
	c0-19.64-15.922-35.561-35.561-35.561c-10.733,0-20.348,4.762-26.868,12.28c-3.898-21.22-22.476-37.305-44.822-37.305
	s-40.924,16.084-44.821,37.304c-6.521-7.518-16.135-12.28-26.868-12.28c-19.64,0-35.561,15.922-35.561,35.561
	c0,2.88,0.369,5.67,1.017,8.351h-1.476c-4.236-2.667-9.25-4.21-14.625-4.21c-15.187,0-27.498,12.311-27.498,27.498
	s12.311,27.498,27.498,27.498V171.6h244.672v-43.84c15.187,0,27.498-12.311,27.498-27.498
	C430.318,85.074,418.007,72.763,402.82,72.763z"/>
<path style="fill:#BCC7D9;" d="M172.209,411.748h-31.541c-32.524,0-58.983-26.459-58.983-58.983V230.585
	c0-32.524,26.459-58.983,58.983-58.983h31.541c11.835,0,21.429,9.594,21.429,21.429s-9.594,21.429-21.429,21.429h-31.541
	c-8.892,0-16.125,7.233-16.125,16.125v122.179c0,8.892,7.233,16.125,16.125,16.125h31.541c11.835,0,21.429,9.594,21.429,21.429
	S184.044,411.748,172.209,411.748z"/>
<g style="opacity:0.2;">
	<path style="fill:#171D26;" d="M172.209,411.748c11.835,0,21.429-9.594,21.429-21.429s-9.594-21.429-21.429-21.429h-31.541
		c-2.575,0-5-0.621-7.162-1.699v44.107c2.35,0.286,4.737,0.45,7.162,0.45H172.209z"/>
	<path style="fill:#171D26;" d="M172.209,171.602h-31.541c-2.426,0-4.812,0.165-7.162,0.45v44.107
		c2.161-1.078,4.588-1.699,7.162-1.699h31.541c11.835,0,21.429-9.594,21.429-21.429S184.044,171.602,172.209,171.602z"/>
</g>
<rect x="158.146" y="127.759" style="fill:#E4EAF5;" width="244.676" height="333.36"/>
<rect x="190.29" y="159.903" style="fill:#FFAC55;" width="180.389" height="246.626"/>
<rect x="158.146" y="127.759" style="opacity:0.2;fill:#171D26;enable-background:new    ;" width="83.573" height="333.36"/>
<g>
	<circle style="fill:#FEFFCC;" cx="310.838" cy="345.617" r="21.429"/>
	<circle style="fill:#FEFFCC;" cx="272.738" cy="288.509" r="17.608"/>
	<circle style="fill:#FEFFCC;" cx="318.017" cy="243.797" r="14.898"/>
</g>
<path style="fill:#BCC7D9;" d="M383.861,438.674H177.108c-21.033,0-38.084,17.051-38.084,38.084v27.206h282.919v-27.206
	C421.944,455.725,404.893,438.674,383.861,438.674z"/>
<path style="opacity:0.2;fill:#171D26;enable-background:new    ;" d="M252.109,438.674h-75.001
	c-21.033,0-38.084,17.051-38.084,38.084v27.206h75.001v-27.206C214.027,455.725,231.077,438.674,252.109,438.674z"/>
<path d="M190.292,414.567h180.385c4.438,0,8.036-3.597,8.036-8.036V159.903c0-4.439-3.598-8.036-8.036-8.036H264.859
	c-4.438,0-8.036,3.597-8.036,8.036c0,4.439,3.598,8.036,8.036,8.036h97.781v230.556H198.328V167.939h29.288
	c4.438,0,8.036-3.597,8.036-8.036c0-4.439-3.598-8.036-8.036-8.036h-37.324c-4.438,0-8.036,3.597-8.036,8.036v246.628
	C182.256,410.969,185.854,414.567,190.292,414.567z"/>
<path d="M310.842,316.158c-16.247,0-29.465,13.218-29.465,29.465s13.217,29.465,29.465,29.465c16.247,0,29.465-13.218,29.465-29.465
	S327.089,316.158,310.842,316.158z M310.842,359.015c-7.385,0-13.393-6.008-13.393-13.393s6.008-13.393,13.393-13.393
	s13.393,6.008,13.393,13.393S318.227,359.015,310.842,359.015z"/>
<path d="M272.734,314.154c14.14,0,25.644-11.503,25.644-25.644s-11.503-25.644-25.644-25.644c-14.141,0-25.644,11.503-25.644,25.644
	S258.595,314.154,272.734,314.154z M272.734,278.939c5.278,0,9.572,4.294,9.572,9.572c0,5.278-4.294,9.572-9.572,9.572
	s-9.572-4.294-9.572-9.572C263.162,283.233,267.456,278.939,272.734,278.939z"/>
<path d="M318.022,220.865c-12.646,0-22.934,10.289-22.934,22.934s10.288,22.933,22.934,22.933c12.646,0,22.934-10.288,22.934-22.933
	C340.957,231.154,330.669,220.865,318.022,220.865z M318.022,250.661c-3.784,0-6.863-3.078-6.863-6.862
	c0-3.784,3.078-6.863,6.863-6.863s6.863,3.078,6.863,6.863C324.885,247.583,321.807,250.661,318.022,250.661z"/>
<path d="M438.353,100.261c0-19.594-15.94-35.534-35.535-35.534c-2.421,0-4.82,0.245-7.164,0.726
	c-1.629-22.567-20.509-40.428-43.483-40.428c-8.151,0-16.036,2.281-22.836,6.466C320.833,12.677,301.931,0,280.484,0
	s-40.349,12.677-48.854,31.492c-6.798-4.185-14.685-6.466-22.836-6.466c-22.974,0-41.855,17.862-43.484,40.428
	c-2.343-0.481-4.742-0.726-7.164-0.726c-19.594,0-35.535,15.94-35.535,35.534c0,16.829,11.763,30.954,27.499,34.607v28.699h-9.445
	c-36.954,0-67.019,30.065-67.019,67.019v122.179c0,36.954,30.065,67.019,67.019,67.019h9.445V439.4
	c-11.574,8.387-19.124,22.004-19.124,37.359v27.206c0,4.439,3.598,8.036,8.036,8.036h282.92c4.438,0,8.036-3.597,8.036-8.036
	v-27.206c0-15.355-7.549-28.973-19.124-37.359V134.869C426.59,131.215,438.353,117.09,438.353,100.261z M140.667,403.712
	c-28.092,0-50.947-22.855-50.947-50.947V230.585c0-28.092,22.855-50.947,50.947-50.947h9.445v26.786h-9.445
	c-13.322,0-24.161,10.839-24.161,24.161v122.179c0,13.322,10.839,24.161,24.161,24.161h9.445v26.786H140.667z M150.113,222.496
	v138.358h-9.445c-4.46,0-8.089-3.629-8.089-8.089V230.585c0-4.46,3.629-8.089,8.089-8.089H150.113z M413.908,476.759v19.17H147.06
	v-19.17c0-11.227,6.192-21.027,15.336-26.185c0.423-0.239,0.851-0.467,1.285-0.685c0.09-0.045,0.179-0.093,0.27-0.138
	c0.551-0.269,1.109-0.521,1.675-0.755c0.054-0.023,0.107-0.042,0.161-0.063c0.523-0.212,1.051-0.41,1.584-0.592
	c0.083-0.029,0.166-0.057,0.25-0.085c1.764-0.587,3.581-1.01,5.427-1.262c0.115-0.016,0.23-0.03,0.345-0.044
	c0.497-0.062,0.996-0.11,1.497-0.147c0.13-0.01,0.259-0.021,0.389-0.03c0.609-0.038,1.219-0.06,1.831-0.06H383.86
	c0.612,0,1.223,0.023,1.831,0.06c0.131,0.007,0.259,0.02,0.389,0.03c0.5,0.038,1,0.086,1.498,0.148
	c0.115,0.014,0.229,0.028,0.344,0.044c1.846,0.253,3.664,0.675,5.429,1.263c0.081,0.028,0.164,0.056,0.245,0.084
	c0.536,0.183,1.067,0.383,1.592,0.596c0.05,0.02,0.102,0.04,0.152,0.06c0.567,0.235,1.127,0.487,1.679,0.758
	c0.087,0.043,0.171,0.089,0.257,0.133c0.438,0.22,0.871,0.45,1.299,0.692C407.719,455.735,413.908,465.534,413.908,476.759z
	 M166.184,431.953v-20.205V368.89V214.46v-42.858v-35.807h228.6v296.158c-0.052-0.013-0.106-0.021-0.159-0.033
	c-0.765-0.184-1.538-0.347-2.316-0.492c-0.156-0.029-0.314-0.057-0.47-0.085c-0.7-0.123-1.405-0.228-2.114-0.319
	c-0.193-0.025-0.384-0.051-0.576-0.074c-0.696-0.079-1.397-0.141-2.102-0.19c-0.183-0.013-0.366-0.031-0.55-0.042
	c-0.873-0.049-1.751-0.08-2.636-0.08H177.108c-0.885,0-1.763,0.031-2.635,0.08c-0.184,0.011-0.366,0.029-0.55,0.042
	c-0.705,0.048-1.406,0.11-2.101,0.19c-0.193,0.022-0.385,0.048-0.578,0.074c-0.709,0.09-1.413,0.196-2.112,0.319
	c-0.158,0.028-0.315,0.056-0.473,0.085c-0.778,0.145-1.549,0.309-2.313,0.492C166.292,431.932,166.238,431.94,166.184,431.953z
	 M402.82,119.724H158.148c-10.732,0-19.463-8.73-19.463-19.463c0-10.732,8.73-19.462,19.463-19.462
	c3.676,0,7.253,1.029,10.345,2.974c3.738,2.353,9.363,1.593,12.097-1.941c3.145-4.067,0.68-8.667,0.68-13.21
	c0-15.177,12.348-27.524,27.525-27.524c7.976,0,15.556,3.465,20.797,9.508c4.324,4.985,12.785,2.669,13.975-3.813
	c3.268-17.801,18.794-30.721,36.917-30.721s33.649,12.92,36.918,30.719c0.558,3.039,2.808,5.488,5.788,6.301
	c2.982,0.819,6.163-0.154,8.187-2.487c5.24-6.043,12.821-9.508,20.797-9.508c15.178,0,27.526,12.347,27.526,27.524
	c0,4.963-2.756,10.437,1.733,14.33c2.893,2.509,7.802,2.864,11.044,0.823c3.092-1.946,6.669-2.974,10.345-2.974
	c10.732,0,19.463,8.73,19.463,19.462C422.282,110.993,413.552,119.724,402.82,119.724z"/>
<g>
</g>
<g>
</g>
<g>
</g>
<g>
</g>
<g>
</g>
<g>
</g>
<g>
</g>
<g>
</g>
<g>
</g>
<g>
</g>
<g>
</g>
<g>
</g>
<g>
</g>
<g>
</g>
<g>
</g>
</svg>
